<svg width="150" height="20" viewBox="0 0 300 40" fill="none" xmlns="http://www.w3.org/2000/svg">
<path d="M0.496094 0.310547H4.45117V14.3027C5.85742 13.0371 7.41016 12.4043 9.10938 12.4043C11.043 12.4043 12.5898 13.0312 13.75 14.2852C14.7344 15.375 15.2266 17.1152 15.2266 19.5059V30H11.2715V19.875C11.2715 18.5039 11.0254 17.5137 10.5332 16.9043C10.0527 16.2832 9.27344 15.9727 8.19531 15.9727C6.8125 15.9727 5.83984 16.4004 5.27734 17.2559C4.72656 18.123 4.45117 19.6113 4.45117 21.7207V30H0.496094V0.310547Z" fill="white"/>
<path d="M35.8527 26.8184L28.1535 12.8789H32.7414L37.9797 22.7227L42.8664 12.8789H47.3312L33.6906 39.3164H29.173L35.8527 26.8184Z" fill="white"/>
<path d="M64.7934 39.3164H60.8383V12.8789H64.7934V14.7422C66.352 13.1836 68.1215 12.4043 70.102 12.4043C72.4574 12.4043 74.3969 13.2715 75.9203 15.0059C77.4672 16.7285 78.2406 18.9023 78.2406 21.5273C78.2406 24.0938 77.473 26.2324 75.9379 27.9434C74.4145 29.6426 72.4926 30.4922 70.1723 30.4922C68.1684 30.4922 66.3754 29.6895 64.7934 28.084V39.3164ZM74.1977 21.5449C74.1977 19.9043 73.7523 18.5684 72.8617 17.5371C71.9594 16.4941 70.8227 15.9727 69.4516 15.9727C67.9984 15.9727 66.8207 16.4766 65.9184 17.4844C65.016 18.4922 64.5648 19.8164 64.5648 21.457C64.5648 23.0625 65.016 24.3867 65.9184 25.4297C66.809 26.4492 67.9809 26.959 69.434 26.959C70.8051 26.959 71.9359 26.4434 72.8266 25.4121C73.7406 24.3809 74.1977 23.0918 74.1977 21.5449Z" fill="white"/>
<path d="M108.816 22.3711H96.5465C96.652 23.7773 97.109 24.8965 97.9176 25.7285C98.7262 26.5488 99.7633 26.959 101.029 26.959C102.013 26.959 102.828 26.7246 103.472 26.2559C104.105 25.7871 104.826 24.9199 105.634 23.6543L108.974 25.5176C108.459 26.3965 107.914 27.1523 107.339 27.7852C106.765 28.4062 106.15 28.9219 105.494 29.332C104.838 29.7305 104.129 30.0234 103.367 30.2109C102.605 30.3984 101.779 30.4922 100.888 30.4922C98.3336 30.4922 96.2828 29.6719 94.7359 28.0312C93.1891 26.3789 92.4156 24.1875 92.4156 21.457C92.4156 18.75 93.1656 16.5586 94.6656 14.8828C96.1773 13.2305 98.1813 12.4043 100.677 12.4043C103.197 12.4043 105.189 13.207 106.654 14.8125C108.107 16.4062 108.834 18.6152 108.834 21.4395L108.816 22.3711ZM104.755 19.1367C104.205 17.0273 102.875 15.9727 100.765 15.9727C100.285 15.9727 99.8336 16.0488 99.4117 16.2012C98.9898 16.3418 98.6031 16.5527 98.2516 16.834C97.9117 17.1035 97.6188 17.4316 97.3727 17.8184C97.1266 18.2051 96.9391 18.6445 96.8102 19.1367H104.755Z" fill="white"/>
<path d="M123.958 12.8789H127.913V14.4082C128.639 13.6465 129.284 13.125 129.846 12.8438C130.421 12.5508 131.1 12.4043 131.886 12.4043C132.929 12.4043 134.018 12.7441 135.155 13.4238L133.345 17.0449C132.595 16.5059 131.862 16.2363 131.147 16.2363C128.991 16.2363 127.913 17.8652 127.913 21.123V30H123.958V12.8789Z" fill="white"/>
<path d="M147.098 21.3164C147.098 18.8438 147.982 16.7402 149.752 15.0059C151.521 13.2715 153.678 12.4043 156.221 12.4043C158.775 12.4043 160.943 13.2773 162.725 15.0234C164.482 16.7695 165.361 18.9141 165.361 21.457C165.361 24.0234 164.477 26.1738 162.707 27.9082C160.926 29.6309 158.74 30.4922 156.15 30.4922C153.584 30.4922 151.434 29.6133 149.699 27.8555C147.965 26.1211 147.098 23.9414 147.098 21.3164ZM151.141 21.3867C151.141 23.0977 151.598 24.4512 152.512 25.4473C153.449 26.4551 154.686 26.959 156.221 26.959C157.768 26.959 159.004 26.4609 159.93 25.4648C160.855 24.4688 161.318 23.1387 161.318 21.4746C161.318 19.8105 160.855 18.4805 159.93 17.4844C158.992 16.4766 157.756 15.9727 156.221 15.9727C154.709 15.9727 153.484 16.4766 152.547 17.4844C151.609 18.4922 151.141 19.793 151.141 21.3867Z" fill="white"/>
<path d="M184.318 0.310547V14.8652C185.9 13.2246 187.693 12.4043 189.696 12.4043C192.005 12.4043 193.927 13.2656 195.462 14.9883C196.997 16.6992 197.765 18.832 197.765 21.3867C197.765 24.0234 196.991 26.2031 195.445 27.9258C193.909 29.6367 191.97 30.4922 189.626 30.4922C187.646 30.4922 185.876 29.7305 184.318 28.207V30H180.363V0.310547H184.318ZM193.722 21.5625C193.722 19.9219 193.277 18.5859 192.386 17.5547C191.484 16.5 190.353 15.9727 188.993 15.9727C187.54 15.9727 186.357 16.4824 185.443 17.502C184.54 18.5098 184.089 19.8223 184.089 21.4395C184.089 23.1035 184.534 24.4336 185.425 25.4297C186.316 26.4492 187.488 26.959 188.941 26.959C190.312 26.959 191.448 26.4492 192.351 25.4297C193.265 24.3984 193.722 23.1094 193.722 21.5625Z" fill="white"/>
<path d="M216.704 12.8789V39.3164H212.748V12.8789H216.704ZM212.151 5.75977C212.151 5.06836 212.403 4.4707 212.907 3.9668C213.411 3.46289 214.014 3.21094 214.717 3.21094C215.432 3.21094 216.041 3.46289 216.545 3.9668C217.049 4.45898 217.301 5.0625 217.301 5.77734C217.301 6.49219 217.049 7.10156 216.545 7.60547C216.053 8.10938 215.45 8.36133 214.735 8.36133C214.02 8.36133 213.411 8.10938 212.907 7.60547C212.403 7.10156 212.151 6.48633 212.151 5.75977Z" fill="white"/>
<path d="M248.105 22.3711H235.836C235.941 23.7773 236.398 24.8965 237.207 25.7285C238.015 26.5488 239.052 26.959 240.318 26.959C241.302 26.959 242.117 26.7246 242.761 26.2559C243.394 25.7871 244.115 24.9199 244.923 23.6543L248.263 25.5176C247.748 26.3965 247.203 27.1523 246.629 27.7852C246.054 28.4062 245.439 28.9219 244.783 29.332C244.127 29.7305 243.418 30.0234 242.656 30.2109C241.894 30.3984 241.068 30.4922 240.177 30.4922C237.623 30.4922 235.572 29.6719 234.025 28.0312C232.478 26.3789 231.705 24.1875 231.705 21.457C231.705 18.75 232.455 16.5586 233.955 14.8828C235.466 13.2305 237.47 12.4043 239.966 12.4043C242.486 12.4043 244.478 13.207 245.943 14.8125C247.396 16.4062 248.123 18.6152 248.123 21.4395L248.105 22.3711ZM244.045 19.1367C243.494 17.0273 242.164 15.9727 240.054 15.9727C239.574 15.9727 239.123 16.0488 238.701 16.2012C238.279 16.3418 237.892 16.5527 237.541 16.834C237.201 17.1035 236.908 17.4316 236.662 17.8184C236.416 18.2051 236.228 18.6445 236.099 19.1367H244.045Z" fill="white"/>
<path d="M267.202 0.310547V18.416L272.774 12.8789H278.083L270.647 20.0684L278.628 30H273.495L267.835 22.7754L267.202 23.4082V30H263.247V0.310547H267.202Z" fill="white"/>
<path d="M296.055 16.5703V30H292.1V16.5703H290.412V12.8789H292.1V6.60352H296.055V12.8789H299.131V16.5703H296.055Z" fill="white"/>
</svg>
